<mxfile host="app.diagrams.net" modified="2024-04-28T13:11:45.558Z" agent="Mozilla/5.0 (Windows NT 10.0; Win64; x64) AppleWebKit/537.36 (KHTML, like Gecko) Chrome/124.0.0.0 Safari/537.36" etag="pOBNe8ebHLlkdDrMBWvt" version="24.3.1" type="device">
  <diagram name="Page-1" id="RV-9XyNnyXG9Ratddr-Y">
    <mxGraphModel dx="1050" dy="522" grid="1" gridSize="10" guides="1" tooltips="1" connect="1" arrows="1" fold="1" page="1" pageScale="1" pageWidth="850" pageHeight="1100" math="0" shadow="0">
      <root>
        <mxCell id="0" />
        <mxCell id="1" parent="0" />
        <mxCell id="s7_oWFq6exNBIvBJBrsL-1" value="" style="rounded=0;whiteSpace=wrap;html=1;strokeWidth=2;fontFamily=Times New Roman;fontStyle=1" vertex="1" parent="1">
          <mxGeometry x="250" y="60" width="410" height="440" as="geometry" />
        </mxCell>
        <mxCell id="s7_oWFq6exNBIvBJBrsL-2" value="USER" style="shape=umlActor;verticalLabelPosition=bottom;verticalAlign=top;html=1;outlineConnect=0;fontFamily=Times New Roman;strokeWidth=2;fontStyle=1" vertex="1" parent="1">
          <mxGeometry x="290" y="240" width="30" height="60" as="geometry" />
        </mxCell>
        <mxCell id="s7_oWFq6exNBIvBJBrsL-4" value="Input Review" style="ellipse;whiteSpace=wrap;html=1;strokeWidth=2;fontFamily=Times New Roman;fontStyle=1" vertex="1" parent="1">
          <mxGeometry x="490" y="110" width="90" height="50" as="geometry" />
        </mxCell>
        <mxCell id="s7_oWFq6exNBIvBJBrsL-5" value="Sentiment Analysis System" style="ellipse;whiteSpace=wrap;html=1;strokeWidth=2;fontFamily=Times New Roman;fontStyle=1" vertex="1" parent="1">
          <mxGeometry x="490" y="180" width="90" height="50" as="geometry" />
        </mxCell>
        <mxCell id="s7_oWFq6exNBIvBJBrsL-6" value="Input Review" style="ellipse;whiteSpace=wrap;html=1;strokeWidth=2;fontFamily=Times New Roman;fontStyle=1" vertex="1" parent="1">
          <mxGeometry x="490" y="255" width="90" height="50" as="geometry" />
        </mxCell>
        <mxCell id="s7_oWFq6exNBIvBJBrsL-7" value="View Sentiment Analysis Results" style="ellipse;whiteSpace=wrap;html=1;strokeWidth=2;fontFamily=Times New Roman;fontStyle=1" vertex="1" parent="1">
          <mxGeometry x="490" y="330" width="100" height="60" as="geometry" />
        </mxCell>
        <mxCell id="s7_oWFq6exNBIvBJBrsL-8" value="" style="endArrow=none;html=1;rounded=0;exitX=0.5;exitY=0.5;exitDx=0;exitDy=0;exitPerimeter=0;entryX=0;entryY=0.5;entryDx=0;entryDy=0;strokeWidth=2;fontFamily=Times New Roman;fontStyle=1" edge="1" parent="1" source="s7_oWFq6exNBIvBJBrsL-2" target="s7_oWFq6exNBIvBJBrsL-4">
          <mxGeometry width="50" height="50" relative="1" as="geometry">
            <mxPoint x="600" y="320" as="sourcePoint" />
            <mxPoint x="650" y="270" as="targetPoint" />
          </mxGeometry>
        </mxCell>
        <mxCell id="s7_oWFq6exNBIvBJBrsL-9" value="" style="endArrow=none;html=1;rounded=0;exitX=0.5;exitY=0.5;exitDx=0;exitDy=0;exitPerimeter=0;entryX=0;entryY=0.5;entryDx=0;entryDy=0;strokeWidth=2;fontFamily=Times New Roman;fontStyle=1" edge="1" parent="1" source="s7_oWFq6exNBIvBJBrsL-2" target="s7_oWFq6exNBIvBJBrsL-5">
          <mxGeometry width="50" height="50" relative="1" as="geometry">
            <mxPoint x="600" y="320" as="sourcePoint" />
            <mxPoint x="650" y="270" as="targetPoint" />
          </mxGeometry>
        </mxCell>
        <mxCell id="s7_oWFq6exNBIvBJBrsL-10" value="" style="endArrow=none;html=1;rounded=0;exitX=0.5;exitY=0.5;exitDx=0;exitDy=0;exitPerimeter=0;entryX=0;entryY=0.5;entryDx=0;entryDy=0;strokeWidth=2;fontFamily=Times New Roman;fontStyle=1" edge="1" parent="1" source="s7_oWFq6exNBIvBJBrsL-2" target="s7_oWFq6exNBIvBJBrsL-6">
          <mxGeometry width="50" height="50" relative="1" as="geometry">
            <mxPoint x="600" y="320" as="sourcePoint" />
            <mxPoint x="650" y="270" as="targetPoint" />
          </mxGeometry>
        </mxCell>
        <mxCell id="s7_oWFq6exNBIvBJBrsL-11" value="" style="endArrow=none;html=1;rounded=0;exitX=0.5;exitY=0.5;exitDx=0;exitDy=0;exitPerimeter=0;entryX=0;entryY=0.5;entryDx=0;entryDy=0;strokeWidth=2;fontFamily=Times New Roman;fontStyle=1" edge="1" parent="1" source="s7_oWFq6exNBIvBJBrsL-2" target="s7_oWFq6exNBIvBJBrsL-7">
          <mxGeometry width="50" height="50" relative="1" as="geometry">
            <mxPoint x="600" y="320" as="sourcePoint" />
            <mxPoint x="650" y="270" as="targetPoint" />
          </mxGeometry>
        </mxCell>
      </root>
    </mxGraphModel>
  </diagram>
</mxfile>
